# xmcd CD database file
#
# Track frame offsets:
#	150
#	17395
#	31920
#	51782
#	71975
#	95155
#	112672
#	129132
#	144075
#	164995
#	182600
#	195957
#	216380
#	236705
#	254105
#
# Disc length: 3635 seconds
#
# Revision: 3
# Processed by: cddbd v1.5.2PL0 Copyright (c) Steve Scherf et al.
# Submitted via: CDex 1.70beta3
#
DISCID=d30e310f
DTITLE=少年カミカゼ - MASTER'D
DYEAR=2007
DGENRE=JPop
TTITLE0=L.A.U.G.H.I.N' Xchng midnightPumpkin
TTITLE1=WINDER ～ボクハココニイル～
TTITLE2=LOVE MADE 100%
TTITLE3=Altair ～キミと出逢えたこと～
TTITLE4=春雷
TTITLE5=閃光花火
TTITLE6=ヤバメムーチョ ～ichika-bachika～
TTITLE7=「君に逢いに行くときの歌２ ～プチゲンカ編～」
TTITLE8=BUZZER BEAT CP Xchng Low-Cuts
TTITLE9=HIGH CONNECTION BOOGIE Ver.2.0
TTITLE10=極東インフェルノ
TTITLE11=STAY TUNE!! ～FM SKZ Ver.～ Xchng GOLLBETTY
TTITLE12=グッドナイト Xchng DJ TASAKA
TTITLE13=ヨコシマデイズ
TTITLE14=Go Home No Home...
EXTD=YEAR: 2007
EXTT0=
EXTT1=
EXTT2=
EXTT3=
EXTT4=
EXTT5=
EXTT6=
EXTT7=
EXTT8=
EXTT9=
EXTT10=
EXTT11=
EXTT12=
EXTT13=
EXTT14=
PLAYORDER=
